<?xml version="1.0" encoding="UTF-8"?>
<svg width="96px" height="35px" viewBox="0 0 96 35" version="1.1" xmlns="http://www.w3.org/2000/svg" xmlns:xlink="http://www.w3.org/1999/xlink">
    <!-- Generator: Sketch 52.2 (67145) - http://www.bohemiancoding.com/sketch -->
    <title>Dark Logo Long</title>
    <desc>Created with Sketch.</desc>
    <g id="Page-1" stroke="none" stroke-width="1" fill="none" fill-rule="evenodd">
        <g id="Dark-Logo-Long">
            <text id="Academy" font-family="HelveticaNeue-Medium, Helvetica Neue" font-size="12" font-weight="400" letter-spacing="-0.17625" fill="#303030">
                <tspan x="45.106875" y="21">Academy</tspan>
            </text>
            <rect id="Rectangle" fill="#1E1E1E" x="0" y="0" width="35" height="35" rx="6"></rect>
            <g id="AppDev" transform="translate(3.000000, 6.000000)">
                <path d="M18.8546146,19.6916465 C18.1043215,20.4712544 17.0571851,20.9555556 15.8994429,20.9555556 C13.6195641,20.9555556 11.7686047,19.0775499 11.7686047,16.764469 C11.7686047,14.451339 13.6195641,12.5733333 15.8994429,12.5733333 C18.1792731,12.5733333 20.0302326,14.451339 20.0302326,16.764469 C20.0302326,17.1907012 20.0302326,17.9898128 20.0302326,17.9898128 L17.9294992,17.9878477 L17.9300821,17.9867669 L15.2515464,17.9867669 C14.335806,17.9851457 13.987813,17.8332427 13.7027735,17.598707 C14.0324536,18.5200975 14.894907,19.1781635 15.9058062,19.1781635 C16.5238776,19.1781635 17.086476,18.9321809 17.5056803,18.5303652 L18.8546146,19.6916465 Z M18.1808275,16.1773926 C17.9239617,15.1328389 17.0021979,14.3908628 15.9058062,14.3908628 C14.9948262,14.3908628 14.2043614,14.8931938 13.8157595,15.6731948 C14.3067094,16.0450425 14.7042977,16.1678127 15.2515464,16.1773926 L18.1808275,16.1773926 Z" id="Fill-1" fill="#AAAAAA"></path>
                <path d="M14.0052068,15.7887393 C13.9312895,15.7452456 13.8726002,15.7196198 13.8055875,15.6740741 C13.4853737,16.294197 13.5041013,16.9972033 13.6874049,17.6265855 C13.7831238,17.7241836 13.9003606,17.7961559 14.027907,17.8548148 C13.7245764,17.2216287 13.693742,16.4001535 14.0052068,15.7887393" id="Fill-2" fill="#1E1E1F"></path>
                <path d="M11.7348837,15.0266667 L11.7348837,6.96427498 C11.7348837,4.66266109 13.5858432,2.79407407 15.8656734,2.79407407 C18.1455522,2.79407407 19.9965116,4.66266109 19.9965116,6.96427498 C19.9965116,9.26583983 18.1455522,11.1344268 15.8656734,11.1344268 C15.1157203,11.1344268 14.412108,10.9321842 13.8055975,10.578897 L13.792968,8.10333675 C14.1933737,8.84384704 14.9718404,9.34665844 15.8656734,9.34665844 C17.1681212,9.34665844 18.225507,8.27914664 18.225507,6.96427498 C18.225507,5.64935428 17.1681212,4.58184248 15.8656734,4.58184248 C14.5632741,4.58184248 13.5459629,5.59712623 13.5459629,6.96427498 L13.5277472,7.28970719 C13.531196,7.31511012 13.5497518,10.4170146 13.5459629,10.4143664 L13.5215296,12.864867 C12.8996208,13.2511584 12.2350144,13.8770612 11.7348837,15.0266667 Z" id="Fill-3" fill="#AAAAAA"></path>
                <path d="M20.7383721,15.0266667 L20.7383721,6.96427498 C20.7383721,4.66266109 22.5893315,2.79407407 24.8692103,2.79407407 C27.1490406,2.79407407 29,4.66266109 29,6.96427498 C29,9.26583983 27.1490406,11.1344268 24.8692103,11.1344268 C24.1105623,11.1344268 23.3993722,10.9275253 22.7881014,10.5665879 L22.7753261,8.06336881 C23.169077,8.82570209 23.9593476,9.34665844 24.8692103,9.34665844 C26.1716096,9.34665844 27.2289954,8.27914664 27.2289954,6.96427498 C27.2289954,5.64935428 26.1716096,4.58184248 24.8692103,4.58184248 C23.5667625,4.58184248 22.5323042,5.5553438 22.5426507,6.96427498 L22.5426507,10.4370721 L22.5155943,12.8730568 C21.3814111,13.5862025 20.9799853,14.5067402 20.7383721,15.0266667" id="Fill-4" fill="#AAAAAA"></path>
                <polyline id="Fill-5" fill="#303030" points="25.5260223 19.047651 25.5267442 19.0474074 24.8574268 20.9214328 24.8523256 20.9214815 25.5260223 19.047651"></polyline>
                <path d="M24.5414887,20.9214815 C22.4168665,20.7654356 20.7383721,18.9607286 20.7383721,16.7605352 C20.7383721,15.3348318 21.4431114,14.0752308 22.5172477,13.322963 L22.5172477,16.1219782 C22.5172477,16.1219782 22.5370927,16.4792993 22.5370927,16.6898951 C22.5370927,18.0200381 23.543409,19.1518002 24.8412835,19.1518002 C24.9597275,19.1518002 25.0761485,19.142823 25.1895349,19.1253592 L24.5414887,20.9214815" id="Fill-6" fill="#AAAAAA"></path>
                <path d="M26.9811655,20.3466299 C26.3598283,20.7295366 25.6314411,20.9516137 24.8523256,20.9555556 L27.5155885,13.4933333 C28.0843978,13.9772021 28.4920729,14.6040635 28.7639535,15.3513993 L26.9811655,20.3466299" id="Fill-7" fill="#AAAAAA"></path>
                <path d="M7.60256998,15.5790983 C7.0957645,14.9990399 6.35489497,14.6330729 5.53023256,14.6330729 L2.76511628,14.6330729 L2.76511628,20.2271398 L5.53023256,20.2271398 C7.05635551,20.2271398 8.29534884,18.9738221 8.29534884,17.4300817 C8.29534884,17.4018018 8.29490988,17.3736202 8.29408073,17.345537 L8.29408073,12.6049833 L8.29534884,12.605721 L8.29534884,10.4090829 L8.29408073,10.4098207 L8.29408073,5.66223383 C8.29490988,5.6341998 8.29534884,5.60606741 8.29534884,5.57788584 C8.29534884,4.03847355 7.05635551,2.78864782 5.53023256,2.78864782 C4.00410961,2.78864782 2.76511628,4.03847355 2.76511628,5.57788584 C2.76511628,7.11729813 4.00410961,8.36707467 5.53023256,8.36707467 C6.35577289,8.36707467 7.09727648,8.00140277 7.60413073,7.42193454 L7.60413073,7.42336083 C7.75537737,7.24994333 7.88784621,7.05837749 8.00017159,6.84738456 L8.00017159,10.5652866 C7.86887332,10.6301583 7.73669712,10.6909479 7.60413073,10.7498685 L7.60413073,10.7502128 C6.9635883,11.0120604 6.26344465,11.1563127 5.53023256,11.1563127 C2.47803543,11.1563127 0,8.65680878 0,5.57813175 C0,2.4995039 2.47803543,0 5.53023256,0 C8.58233214,0 11.06027,2.49930717 11.0604651,5.57788584 L11.0604651,17.4297866 C11.0604651,18.0902093 10.9460912,18.7239258 10.7362676,19.312001 C10.5792657,19.7626602 10.3653451,20.1837608 10.0939206,20.5750076 C9.63447417,21.2496931 9.03148734,21.8175543 8.32944152,22.2337366 C8.31812606,22.2410156 8.30676184,22.2482947 8.29534884,22.2555245 L8.29534884,22.2538031 C7.48170924,22.7283159 6.5372591,23 5.53023256,23 L0,23 L0,11.8595241 C0,11.8595241 3.98913614,11.8595241 5.53023256,11.8595241 C6.26320078,11.8595241 6.96300302,12.0034813 7.60344791,12.2647879 L7.60344791,12.2646403 C7.73625816,12.3236593 7.86862945,12.3845473 8.00017159,12.4495174 L8.00017159,16.1674194 C7.88745602,15.9557379 7.75449945,15.7635327 7.60256998,15.5896233 L7.60256998,15.5790983" id="Fill-8" fill="#00C5FF"></path>
            </g>
        </g>
    </g>
</svg>