<?xml version="1.0" encoding="UTF-8"?>
<svg width="90px" height="35px" viewBox="0 0 90 35" version="1.1" xmlns="http://www.w3.org/2000/svg" xmlns:xlink="http://www.w3.org/1999/xlink">
    <!-- Generator: Sketch 52.5 (67469) - http://www.bohemiancoding.com/sketch -->
    <title>Dark Logo Long</title>
    <desc>Created with Sketch.</desc>
    <g id="Page-1" stroke="none" stroke-width="1" fill="none" fill-rule="evenodd">
        <g id="Dark-Logo-Long">
            <text id="Academy" font-family="Consolas" font-size="12" font-weight="normal" letter-spacing="-0.200000003" fill="#303030">
                <tspan x="45.0082031" y="21">Academ</tspan>
                <tspan x="83.3941406" y="21">y</tspan>
            </text>
            <rect id="Rectangle" fill="#1E1E1E" x="0" y="0" width="35" height="35" rx="6"></rect>
            <g id="App-Dev" transform="translate(3.000000, 6.000000)">
                <path d="M26.9710966,20.1848449 C26.3487707,20.5634042 25.6192244,20.7829599 24.838869,20.786857 L27.5063701,13.4093591 C28.0760845,13.8877341 28.4844083,14.5074782 28.7567216,15.246329 L26.9710966,20.1848449" id="Fill-5" fill="#AAAAAA"></path>
                <path d="M24.5587127,20.7628895 C22.4099709,20.6079292 20.7124215,18.8157765 20.7124215,16.6308886 C20.7124215,15.2151031 21.42521,13.9642644 22.5114916,13.2172296 L22.5114916,15.9967737 C22.5114916,15.9967737 22.5315619,16.3516091 22.5315619,16.5607399 C22.5315619,17.8816298 23.5493024,19.0055189 24.8619109,19.0055189 C24.9816995,19.0055189 25.0994421,18.9966042 25.2141157,18.9792619 L24.5587127,20.7628895" id="Fill-4" fill="#AAAAAA"></path>
                <path d="M13.6978455,17.4428596 C13.7013529,17.4462209 13.7022785,17.4479259 13.6991608,17.4453927 C14.0297852,18.3590306 14.8947087,19.0115595 15.9085033,19.0115595 C16.5283448,19.0115595 17.0925546,18.7676467 17.5129595,18.3692119 L18.8657574,19.520722 C18.1133154,20.2937702 17.0631798,20.7739964 15.9021217,20.7739964 C13.6157131,20.7739964 11.7594523,18.9117925 11.7594523,16.6181741 C11.7594523,14.3245071 13.6157131,12.4623031 15.9021217,12.4623031 C18.1884816,12.4623031 20.0447424,14.3245071 20.0447424,16.6181741 C20.0447424,17.0408199 20.0447424,17.8332078 20.0447424,17.8332078 L17.9380411,17.8312592 L17.9385769,17.8301875 L15.2523695,17.8301875 C14.6555699,17.8291645 14.2992243,17.7651538 14.0443995,17.6566669 C13.7376451,17.0452042 13.7061757,16.2712792 14.0197013,15.6801791 C14.4225691,15.9374883 14.7824221,16.0279022 15.2523695,16.0360375 L18.1900405,16.0360375 C17.9324389,15.0002727 17.0080352,14.2645397 15.9085033,14.2645397 C14.9949141,14.2645397 14.2021853,14.7626441 13.8124704,15.536082 C13.483551,16.1392632 13.5091748,16.8308123 13.6978455,17.4428596" id="Fill-1" fill="#AAAAAA"></path>
                <path d="M20.7124215,14.9616909 L20.7124215,6.95290356 C20.7124215,4.66659238 22.5686823,2.81042901 24.8550909,2.81042901 C27.1414508,2.81042901 28.9977116,4.66659238 28.9977116,6.95290356 C28.9977116,9.23916604 27.1414508,11.0953294 24.8550909,11.0953294 C24.0943187,11.0953294 23.381043,10.8898035 22.7680214,10.5312658 L22.7552095,8.04468986 C23.1500882,8.80195463 23.9426221,9.3194473 24.8550909,9.3194473 C26.1612204,9.3194473 27.2216346,8.25903306 27.2216346,6.95290356 C27.2216346,5.64672536 26.1612204,4.58631111 24.8550909,4.58631111 C23.5489127,4.58631111 22.5114916,5.55333992 22.5218677,6.95290356 L22.5218677,10.4026112 L22.4947338,12.8223997 C21.3573022,13.530804 20.9547267,14.4452213 20.7124215,14.9616909" id="Fill-3" fill="#AAAAAA"></path>
                <path d="M11.7336824,14.9616909 L11.7336824,6.95290356 C11.7336824,4.66659238 13.5899432,2.81042901 15.8763031,2.81042901 C18.1627117,2.81042901 20.0189725,4.66659238 20.0189725,6.95290356 C20.0189725,9.23916604 18.1627117,11.0953294 15.8763031,11.0953294 C15.1242021,11.0953294 14.4185745,10.8944314 13.810327,10.5434931 L13.7976612,8.08439207 C14.1992137,8.81997894 14.9799101,9.3194473 15.8763031,9.3194473 C17.1824813,9.3194473 18.2428956,8.25903306 18.2428956,6.95290356 C18.2428956,5.64672536 17.1824813,4.58631111 15.8763031,4.58631111 C14.5701736,4.58631111 13.5499487,5.59484456 13.5499487,6.95290356 L13.5316808,7.27617207 C13.5351395,7.30140611 13.5537484,10.382687 13.5499487,10.3800564 L13.5254454,12.8142644 C12.9017554,13.1979874 12.2352455,13.8197288 11.7336824,14.9616909 Z" id="Fill-2" fill="#AAAAAA"></path>
                <path d="M7.59335129,15.4480551 C7.08716035,14.8735179 6.34718918,14.5110344 5.52352673,14.5110344 L2.76176337,14.5110344 L2.76176337,20.0518547 L5.52352673,20.0518547 C7.04779914,20.0518547 8.2852901,18.8104666 8.2852901,17.2814202 C8.2852901,17.2534094 8.28485167,17.2254961 8.28402353,17.1976802 L8.28402353,12.5022489 L8.2852901,12.5029796 L8.2852901,10.32725 L8.28402353,10.3279808 L8.28402353,5.62558332 C8.28485167,5.59781614 8.2852901,5.56995152 8.2852901,5.54203819 C8.2852901,4.01727864 7.04779914,2.77934925 5.52352673,2.77934925 C3.99925432,2.77934925 2.76176337,4.01727864 2.76176337,5.54203819 C2.76176337,7.06679774 3.99925432,8.30467841 5.52352673,8.30467841 C6.34806604,8.30467841 7.08867049,7.94248713 7.59491015,7.36853451 L7.59491015,7.36994722 C7.74597339,7.19818038 7.8782816,7.00843794 7.99047078,6.79945332 L7.99047078,10.4819669 C7.85933171,10.5462211 7.72731579,10.6064321 7.59491015,10.6647919 L7.59491015,10.6651329 C6.95514442,10.9244881 6.25584975,11.0673674 5.52352673,11.0673674 C2.47503063,11.0673674 0,8.59165473 0,5.54228176 C0,2.49295751 2.47503063,0.0172448844 5.52352673,0.0172448844 C8.57192541,0.0172448844 11.0468586,2.49276266 11.0470535,5.54203819 L11.0470535,17.2811279 C11.0470535,17.9352644 10.9328183,18.5629489 10.7232491,19.1454266 C10.5664376,19.5917963 10.3527764,20.0088886 10.0816809,20.3964114 C9.62279164,21.064675 9.02053598,21.627131 8.31934144,22.039352 C8.30803971,22.0465617 8.29668926,22.0537714 8.2852901,22.0609324 L8.2852901,22.0592274 C7.4726371,22.5292236 6.52933218,22.7983218 5.52352673,22.7983218 L0,22.7983218 L0,11.7638853 C0,11.7638853 3.98429901,11.7638853 5.52352673,11.7638853 C6.25560618,11.7638853 6.95455985,11.9064723 7.59422815,12.1652917 L7.59422815,12.1651455 C7.72687736,12.2236028 7.85908814,12.2839111 7.99047078,12.3482628 L7.99047078,16.0307763 C7.87789188,15.8211097 7.74509653,15.630734 7.59335129,15.45848 L7.59335129,15.4480551" id="Fill-7" fill="#00C5FF"></path>
            </g>
        </g>
    </g>
</svg>