<svg width="1024" height="1024" viewBox="0 0 1024 1024" fill="none" xmlns="http://www.w3.org/2000/svg">
<rect width="1024" height="1024" fill="white"/>
<path fill-rule="evenodd" clip-rule="evenodd" d="M880.903 771.889C862.469 783.102 840.859 789.606 817.744 789.721L896.758 571.194C913.633 585.364 925.728 603.722 933.794 625.607L880.903 771.889" fill="#303030"/>
<path fill-rule="evenodd" clip-rule="evenodd" d="M809.446 789.011C745.799 784.421 695.516 731.336 695.516 666.618C695.516 624.682 716.63 587.631 748.806 565.503V647.835C748.806 647.835 749.4 658.346 749.4 664.54C749.4 703.666 779.547 736.957 818.427 736.957C821.975 736.957 825.463 736.692 828.86 736.179L809.446 789.011" fill="#303030"/>
<path fill-rule="evenodd" clip-rule="evenodd" d="M487.74 690.669C487.844 690.769 487.871 690.82 487.779 690.745C497.572 717.807 523.192 737.135 553.221 737.135C571.581 737.135 588.293 729.911 600.746 718.109L640.817 752.217C618.529 775.115 587.423 789.34 553.032 789.34C485.307 789.34 430.323 734.18 430.323 666.242C430.323 598.302 485.307 543.142 553.032 543.142C620.755 543.142 675.739 598.302 675.739 666.242C675.739 678.761 675.739 702.232 675.739 702.232L613.337 702.174L613.353 702.142H533.786C516.108 702.112 505.553 700.216 498.005 697.003C488.919 678.891 487.986 655.966 497.273 638.458C509.206 646.079 519.866 648.757 533.786 648.998H620.802C613.171 618.318 585.79 596.525 553.221 596.525C526.16 596.525 502.679 611.28 491.135 634.189C481.392 652.056 482.151 672.54 487.74 690.669" fill="#303030"/>
<path fill-rule="evenodd" clip-rule="evenodd" d="M695.516 617.176V379.95C695.516 312.228 750.5 257.247 818.225 257.247C885.949 257.247 940.932 312.228 940.932 379.95C940.932 447.67 885.949 502.651 818.225 502.651C795.69 502.651 774.563 496.563 756.405 485.943L756.025 412.289C767.722 434.72 791.197 450.048 818.225 450.048C856.913 450.048 888.324 418.638 888.324 379.95C888.324 341.26 856.913 309.85 818.225 309.85C779.535 309.85 748.806 338.494 749.113 379.95V482.132L748.31 553.808C714.618 574.792 702.693 601.877 695.516 617.176" fill="#303030"/>
<path fill-rule="evenodd" clip-rule="evenodd" d="M429.56 617.176V379.95C429.56 312.228 484.543 257.247 552.267 257.247C619.992 257.247 674.976 312.228 674.976 379.95C674.976 447.67 619.992 502.651 552.267 502.651C529.989 502.651 509.088 496.701 491.071 486.306L490.696 413.465C502.59 435.254 525.715 450.048 552.267 450.048C590.957 450.048 622.367 418.638 622.367 379.95C622.367 341.26 590.957 309.85 552.267 309.85C513.579 309.85 483.359 339.723 483.359 379.95L482.818 389.525C482.92 390.273 483.471 481.542 483.359 481.464L482.633 553.567C464.159 564.933 444.416 583.35 429.56 617.176Z" fill="#303030"/>
<path fill-rule="evenodd" clip-rule="evenodd" d="M306.92 631.582C291.927 614.564 270.008 603.827 245.611 603.827H163.805V767.95H245.611C290.761 767.95 327.416 731.179 327.416 685.888C327.416 685.058 327.403 684.231 327.378 683.407V544.325L327.416 544.347V479.9L327.378 479.922V340.634C327.403 339.811 327.416 338.986 327.416 338.159C327.416 292.995 290.761 256.326 245.611 256.326C200.461 256.326 163.805 292.995 163.805 338.159C163.805 383.323 200.461 419.99 245.611 419.99C270.034 419.99 291.971 409.262 306.966 392.261V392.303C311.441 387.215 315.36 381.595 318.683 375.405V484.483C314.799 486.386 310.888 488.17 306.966 489.899V489.909C288.016 497.591 267.303 501.823 245.611 501.823C155.312 501.823 82 428.491 82 338.166C82 247.843 155.312 174.511 245.611 174.511C335.906 174.511 409.216 247.837 409.221 338.159V685.879C409.221 705.255 405.838 723.847 399.63 741.101C394.985 754.323 388.656 766.677 380.626 778.156C367.034 797.95 349.195 814.611 328.425 826.821C328.09 827.034 327.754 827.248 327.416 827.46V827.41C303.345 841.331 275.403 849.302 245.611 849.302H82V522.454C82 522.454 200.018 522.454 245.611 522.454C267.295 522.454 287.999 526.678 306.946 534.344V534.34C310.875 536.072 314.792 537.858 318.683 539.764V648.843C315.349 642.632 311.415 636.993 306.92 631.891V631.582" fill="#00C5FF"/>
</svg>
